# xmcd
#
# Track frame offsets:
#	150
#	9915
#	19302
#	30298
#	37494
#	47902
#	57880
#	66976
#	76647
#	86588
#	95994
#	105359
#	117358
#	126529
#	137322
#	147732
#	157699
#	168451
#	178830
#	188250
#
# Disc length: 2635 seconds
#
# Revision: 1
# Processed by: cddbd v1.5.2PL0 Copyright (c) Steve Scherf et al.
# Submitted via: audiograbber 1.83.01
#
DISCID=0a0a4914
DTITLE=Various Artist - Rock-A-Billy - CD8 - Teenage Boogie
DYEAR=1900
DGENRE=Rock and Roll
TTITLE0=Johnny Horton  - Got The Bull By The Horns
TTITLE1=Johnny Strickland  - She's Mine
TTITLE2=Carl Perkins  - Dixie Fried
TTITLE3=Big Al Downing - Down On The Farm
TTITLE4=Hoyt Johnson - Eenie Meenie Minie Mo
TTITLE5=Jimmy C. Newman - Carry On
TTITLE6=Johnny Burnette Rock and Roll Trio  - All By Myself
TTITLE7=Jimmy and Johnny - I Can't Find The Doorknob
TTITLE8=Bill Lawrence - Hey Baby
TTITLE9=Billy Riley - Flying Saucer Rock And Roll
TTITLE10=Johnny Garner - Didi Didi
TTITLE11=Elvis Presley - Milk Cow Blues Boogie
TTITLE12=Jimmy Lloyd - You're Gone Baby
TTITLE13=Webb Pierce  - Teenage Boogie
TTITLE14=Johnny Carroll - Hot Rock
TTITLE15=Bobby Lee Trammell - Woe Is Me
TTITLE16=Skeets McDonald  - Heartbreakin' Mama
TTITLE17=Jack Earls - Slow Down
TTITLE18=Eddie Bond  - Boppin' Bonnie
TTITLE19=Janis Martin - Let's Elope Baby
EXTD=
EXTT0=
EXTT1=
EXTT2=
EXTT3=
EXTT4=
EXTT5=
EXTT6=
EXTT7=
EXTT8=
EXTT9=
EXTT10=
EXTT11=
EXTT12=
EXTT13=
EXTT14=
EXTT15=
EXTT16=
EXTT17=
EXTT18=
EXTT19=
PLAYORDER=
